<mxfile host="app.diagrams.net" modified="2023-07-31T13:55:44.792Z" agent="Mozilla/5.0 (Windows NT 10.0; Win64; x64) AppleWebKit/537.36 (KHTML, like Gecko) Chrome/115.0.0.0 Safari/537.36" version="21.6.6" etag="c6t4Zd-oCODCXiABUvvr" type="github">
  <diagram name="Page-1" id="vOo8jksbLvnz8HRP__D6">
    <mxGraphModel>
      <root>
        <mxCell id="0" />
        <mxCell id="1" parent="0" />
      </root>
    </mxGraphModel>
  </diagram>
</mxfile>
